<svg xmlns="http://www.w3.org/2000/svg" xmlns:xlink="http://www.w3.org/1999/xlink" width="552" zoomAndPan="magnify" viewBox="0 0 414 132.749998" height="177" preserveAspectRatio="xMidYMid meet" version="1.0"><defs><g/><clipPath id="aa8e595c5e"><path d="M 38.015625 45 L 76.941406 45 L 76.941406 94.394531 L 38.015625 94.394531 Z M 38.015625 45 " clip-rule="nonzero"/></clipPath></defs><path fill="#54915f" d="M 66.59375 46.660156 L 40.058594 67.855469 L 56.363281 70.777344 L 41.433594 92.875 L 74.878906 63.679688 L 58.15625 62.835938 Z M 66.59375 46.660156 " fill-opacity="1" fill-rule="nonzero"/><g clip-path="url(#aa8e595c5e)"><path fill="#54915f" d="M 66.023438 46.007812 C 63.042969 48.390625 60.066406 50.757812 57.105469 53.140625 C 52.335938 56.949219 47.5625 60.757812 42.789062 64.585938 C 41.699219 65.449219 40.59375 66.335938 39.503906 67.199219 C 39.296875 67.375 38.015625 68.949219 38.96875 69.125 C 43.722656 69.96875 48.476562 70.835938 53.230469 71.679688 C 53.917969 71.796875 54.585938 71.929688 55.273438 72.046875 C 55.253906 71.625 55.253906 71.199219 55.234375 70.796875 C 50.863281 77.238281 46.511719 83.699219 42.140625 90.144531 C 41.527344 91.066406 40.898438 91.972656 40.289062 92.894531 C 40.039062 93.257812 39.8125 93.914062 40.324219 94.144531 C 40.859375 94.394531 41.625 93.855469 41.988281 93.527344 C 45.785156 90.238281 49.546875 86.933594 53.328125 83.644531 C 59.320312 78.414062 65.316406 73.179688 71.289062 67.949219 C 72.664062 66.738281 74.039062 65.546875 75.433594 64.335938 C 75.855469 63.96875 76.941406 62.429688 75.699219 62.371094 C 70.832031 62.121094 65.984375 61.890625 61.117188 61.640625 C 60.410156 61.601562 59.703125 61.566406 58.976562 61.527344 C 59.128906 61.855469 59.300781 62.179688 59.453125 62.488281 C 61.917969 57.757812 64.378906 53.046875 66.84375 48.3125 C 67.1875 47.640625 67.550781 46.96875 67.894531 46.3125 C 68.238281 45.660156 67.703125 45.257812 67.089844 45.390625 C 66.289062 45.5625 65.621094 46.292969 65.257812 47.007812 C 62.796875 51.738281 60.332031 56.449219 57.871094 61.179688 C 57.527344 61.855469 57.164062 62.527344 56.820312 63.179688 C 56.570312 63.640625 56.78125 64.121094 57.296875 64.140625 C 62.164062 64.390625 67.015625 64.621094 71.882812 64.871094 C 72.589844 64.910156 73.296875 64.949219 74.019531 64.988281 C 74.117188 64.335938 74.191406 63.679688 74.289062 63.027344 C 70.507812 66.335938 66.726562 69.625 62.96875 72.929688 C 56.972656 78.164062 50.980469 83.394531 45.003906 88.625 C 43.628906 89.835938 42.253906 91.027344 40.859375 92.238281 C 41.433594 92.453125 42.007812 92.664062 42.558594 92.875 C 46.914062 86.414062 51.285156 79.96875 55.636719 73.507812 C 56.246094 72.585938 56.878906 71.679688 57.488281 70.757812 C 57.660156 70.507812 58.023438 69.605469 57.449219 69.507812 C 52.695312 68.660156 47.941406 67.796875 43.191406 66.949219 C 42.503906 66.835938 41.835938 66.699219 41.148438 66.585938 C 40.976562 67.21875 40.785156 67.875 40.613281 68.507812 C 43.589844 66.121094 46.570312 63.757812 49.546875 61.371094 C 54.320312 57.566406 59.09375 53.757812 63.863281 49.929688 C 64.953125 49.0625 66.058594 48.179688 67.148438 47.3125 C 67.550781 47.007812 68.332031 46.0625 67.875 45.527344 C 67.414062 44.988281 66.382812 45.71875 66.023438 46.007812 Z M 66.023438 46.007812 " fill-opacity="1" fill-rule="nonzero"/></g><g fill="#242d52" fill-opacity="1"><g transform="translate(88.341831, 84.317362)"><g><path d="M 20.71875 10.453125 L 20.71875 -3.09375 L 20.234375 -3.1875 C 18.671875 -0.738281 16.164062 0.484375 12.71875 0.484375 C 10.695312 0.484375 8.898438 -0.00390625 7.328125 -0.984375 C 5.765625 -1.960938 4.535156 -3.445312 3.640625 -5.4375 C 2.753906 -7.4375 2.3125 -9.894531 2.3125 -12.8125 C 2.3125 -15.789062 2.765625 -18.285156 3.671875 -20.296875 C 4.585938 -22.316406 5.851562 -23.820312 7.46875 -24.8125 C 9.082031 -25.800781 10.953125 -26.296875 13.078125 -26.296875 C 14.679688 -26.296875 16.078125 -26 17.265625 -25.40625 C 18.460938 -24.8125 19.453125 -23.882812 20.234375 -22.625 L 20.71875 -22.71875 L 20.71875 -25.796875 L 27.203125 -25.796875 L 27.203125 10.453125 Z M 14.859375 -5 C 16.679688 -5 18.117188 -5.644531 19.171875 -6.9375 C 20.234375 -8.238281 20.765625 -10.195312 20.765625 -12.8125 C 20.765625 -15.5 20.234375 -17.5 19.171875 -18.8125 C 18.117188 -20.132812 16.679688 -20.796875 14.859375 -20.796875 C 12.941406 -20.796875 11.484375 -20.15625 10.484375 -18.875 C 9.484375 -17.59375 8.984375 -15.570312 8.984375 -12.8125 C 8.984375 -7.601562 10.941406 -5 14.859375 -5 Z M 14.859375 -5 "/></g></g><g transform="translate(119.267963, 84.317362)"><g><path d="M 13.84375 0 L 7.0625 0 L 0.9375 -25.796875 L 6.953125 -25.796875 L 10.734375 -8.34375 L 11.234375 -8.34375 L 16.140625 -25.796875 L 21.75 -25.796875 L 26.828125 -8.34375 L 27.328125 -8.34375 L 30.96875 -25.796875 L 36.8125 -25.796875 L 30.765625 0 L 23.953125 0 L 19.0625 -17.5625 L 18.578125 -17.5625 Z M 13.84375 0 "/></g></g><g transform="translate(157.001587, 84.317362)"><g><path d="M 6.953125 -28.890625 C 5.773438 -28.890625 4.820312 -29.242188 4.09375 -29.953125 C 3.363281 -30.660156 3 -31.578125 3 -32.703125 C 3 -33.804688 3.363281 -34.710938 4.09375 -35.421875 C 4.820312 -36.128906 5.773438 -36.484375 6.953125 -36.484375 C 7.722656 -36.484375 8.410156 -36.320312 9.015625 -36 C 9.628906 -35.675781 10.101562 -35.226562 10.4375 -34.65625 C 10.78125 -34.082031 10.953125 -33.429688 10.953125 -32.703125 C 10.953125 -31.972656 10.78125 -31.316406 10.4375 -30.734375 C 10.101562 -30.160156 9.628906 -29.707031 9.015625 -29.375 C 8.410156 -29.050781 7.722656 -28.890625 6.953125 -28.890625 Z M 3.71875 0 L 3.71875 -25.796875 L 10.203125 -25.796875 L 10.203125 0 Z M 3.71875 0 "/></g></g><g transform="translate(170.897292, 84.317362)"><g><path d="M 3.71875 0 L 3.71875 -36.15625 L 10.203125 -36.15625 L 10.203125 -16.09375 L 10.828125 -16.09375 L 18.296875 -25.796875 L 24.859375 -25.796875 L 24.859375 -25.265625 L 16.09375 -13.9375 L 25.84375 -0.578125 L 25.84375 0 L 19.015625 0 L 10.828125 -10.875 L 10.203125 -10.875 L 10.203125 0 Z M 3.71875 0 "/></g></g><g transform="translate(196.793834, 84.317362)"><g><path d="M 11.203125 -34.203125 L 11.203125 -5.65625 L 26.578125 -5.65625 L 26.578125 0 L 4.4375 0 L 4.4375 -34.203125 Z M 11.203125 -34.203125 "/></g></g><g transform="translate(224.49167, 84.317362)"><g><path d="M 25.5 -11.4375 L 8.90625 -11.4375 C 9.09375 -9.1875 9.734375 -7.550781 10.828125 -6.53125 C 11.921875 -5.507812 13.410156 -5 15.296875 -5 C 16.773438 -5 17.972656 -5.273438 18.890625 -5.828125 C 19.816406 -6.390625 20.5625 -7.226562 21.125 -8.34375 L 21.609375 -8.34375 L 25.921875 -5.59375 C 25.078125 -3.78125 23.804688 -2.3125 22.109375 -1.1875 C 20.410156 -0.0703125 18.140625 0.484375 15.296875 0.484375 C 12.628906 0.484375 10.320312 -0.0195312 8.375 -1.03125 C 6.4375 -2.039062 4.941406 -3.546875 3.890625 -5.546875 C 2.835938 -7.554688 2.3125 -10.003906 2.3125 -12.890625 C 2.3125 -15.816406 2.863281 -18.285156 3.96875 -20.296875 C 5.082031 -22.316406 6.582031 -23.820312 8.46875 -24.8125 C 10.351562 -25.800781 12.472656 -26.296875 14.828125 -26.296875 C 18.472656 -26.296875 21.265625 -25.328125 23.203125 -23.390625 C 25.148438 -21.453125 26.125 -18.613281 26.125 -14.875 C 26.125 -13.519531 26.078125 -12.46875 25.984375 -11.71875 Z M 19.9375 -15.625 C 19.875 -17.59375 19.414062 -19.023438 18.5625 -19.921875 C 17.707031 -20.816406 16.460938 -21.265625 14.828125 -21.265625 C 11.554688 -21.265625 9.628906 -19.382812 9.046875 -15.625 Z M 19.9375 -15.625 "/></g></g><g transform="translate(252.540409, 84.317362)"><g><path d="M 10.0625 0.484375 C 8.40625 0.484375 6.96875 0.179688 5.75 -0.421875 C 4.539062 -1.023438 3.609375 -1.914062 2.953125 -3.09375 C 2.296875 -4.269531 1.96875 -5.6875 1.96875 -7.34375 C 1.96875 -8.875 2.296875 -10.15625 2.953125 -11.1875 C 3.609375 -12.226562 4.617188 -13.078125 5.984375 -13.734375 C 7.359375 -14.398438 9.15625 -14.914062 11.375 -15.28125 C 12.914062 -15.53125 14.085938 -15.800781 14.890625 -16.09375 C 15.691406 -16.382812 16.234375 -16.71875 16.515625 -17.09375 C 16.796875 -17.46875 16.9375 -17.945312 16.9375 -18.53125 C 16.9375 -19.351562 16.644531 -19.984375 16.0625 -20.421875 C 15.488281 -20.859375 14.53125 -21.078125 13.1875 -21.078125 C 11.757812 -21.078125 10.394531 -20.753906 9.09375 -20.109375 C 7.800781 -19.472656 6.679688 -18.632812 5.734375 -17.59375 L 5.265625 -17.59375 L 2.546875 -21.6875 C 3.859375 -23.132812 5.457031 -24.265625 7.34375 -25.078125 C 9.226562 -25.890625 11.285156 -26.296875 13.515625 -26.296875 C 16.929688 -26.296875 19.40625 -25.566406 20.9375 -24.109375 C 22.46875 -22.660156 23.234375 -20.601562 23.234375 -17.9375 L 23.234375 -6.734375 C 23.234375 -5.578125 23.738281 -5 24.75 -5 C 25.132812 -5 25.515625 -5.070312 25.890625 -5.21875 L 26.21875 -5.125 L 26.6875 -0.609375 C 26.332031 -0.367188 25.832031 -0.175781 25.1875 -0.03125 C 24.550781 0.113281 23.851562 0.1875 23.09375 0.1875 C 21.539062 0.1875 20.332031 -0.109375 19.46875 -0.703125 C 18.601562 -1.296875 17.984375 -2.222656 17.609375 -3.484375 L 17.125 -3.53125 C 15.863281 -0.851562 13.507812 0.484375 10.0625 0.484375 Z M 12.109375 -4.34375 C 13.609375 -4.34375 14.804688 -4.847656 15.703125 -5.859375 C 16.597656 -6.867188 17.046875 -8.269531 17.046875 -10.0625 L 17.046875 -12.671875 L 16.609375 -12.765625 C 16.210938 -12.453125 15.695312 -12.191406 15.0625 -11.984375 C 14.4375 -11.773438 13.53125 -11.570312 12.34375 -11.375 C 10.945312 -11.132812 9.9375 -10.726562 9.3125 -10.15625 C 8.695312 -9.59375 8.390625 -8.789062 8.390625 -7.75 C 8.390625 -6.632812 8.71875 -5.785156 9.375 -5.203125 C 10.03125 -4.628906 10.941406 -4.34375 12.109375 -4.34375 Z M 12.109375 -4.34375 "/></g></g><g transform="translate(279.746983, 84.317362)"><g><path d="M 3.71875 0 L 3.71875 -25.796875 L 10.015625 -25.796875 L 10.015625 -21.96875 L 10.5 -21.875 C 11.125 -23.300781 11.941406 -24.347656 12.953125 -25.015625 C 13.972656 -25.691406 15.207031 -26.03125 16.65625 -26.03125 C 18.125 -26.03125 19.238281 -25.78125 20 -25.28125 L 18.90625 -19.703125 L 18.40625 -19.609375 C 17.988281 -19.773438 17.582031 -19.894531 17.1875 -19.96875 C 16.800781 -20.050781 16.328125 -20.09375 15.765625 -20.09375 C 13.953125 -20.09375 12.570312 -19.457031 11.625 -18.1875 C 10.675781 -16.914062 10.203125 -14.875 10.203125 -12.0625 L 10.203125 0 Z M 3.71875 0 "/></g></g><g transform="translate(299.982311, 84.317362)"><g><path d="M 3.71875 0 L 3.71875 -25.796875 L 9.9375 -25.796875 L 9.9375 -22.015625 L 10.4375 -21.890625 C 12.039062 -24.828125 14.644531 -26.296875 18.25 -26.296875 C 21.226562 -26.296875 23.414062 -25.484375 24.8125 -23.859375 C 26.207031 -22.234375 26.90625 -19.867188 26.90625 -16.765625 L 26.90625 0 L 20.421875 0 L 20.421875 -15.96875 C 20.421875 -17.6875 20.078125 -18.921875 19.390625 -19.671875 C 18.703125 -20.429688 17.601562 -20.8125 16.09375 -20.8125 C 14.238281 -20.8125 12.789062 -20.210938 11.75 -19.015625 C 10.71875 -17.816406 10.203125 -15.929688 10.203125 -13.359375 L 10.203125 0 Z M 3.71875 0 "/></g></g><g transform="translate(330.20664, 84.317362)"><g><path d="M 10.453125 4.890625 C 8.335938 2.265625 6.628906 -0.65625 5.328125 -3.875 C 4.035156 -7.101562 3.390625 -11.019531 3.390625 -15.625 C 3.390625 -20.238281 4.035156 -24.160156 5.328125 -27.390625 C 6.628906 -30.617188 8.335938 -33.539062 10.453125 -36.15625 L 15.4375 -36.15625 L 15.53125 -35.671875 C 13.84375 -32.785156 12.539062 -29.789062 11.625 -26.6875 C 10.707031 -23.582031 10.25 -19.894531 10.25 -15.625 C 10.25 -11.363281 10.707031 -7.679688 11.625 -4.578125 C 12.539062 -1.484375 13.84375 1.503906 15.53125 4.390625 L 15.4375 4.890625 Z M 10.453125 4.890625 "/></g></g><g transform="translate(347.213674, 84.317362)"><g/></g><g transform="translate(358.512706, 84.317362)"><g><path d="M 1.46875 4.390625 C 2.550781 2.523438 3.472656 0.648438 4.234375 -1.234375 C 4.992188 -3.117188 5.601562 -5.253906 6.0625 -7.640625 C 6.53125 -10.035156 6.765625 -12.695312 6.765625 -15.625 C 6.765625 -18.550781 6.53125 -21.210938 6.0625 -23.609375 C 5.601562 -26.003906 4.992188 -28.144531 4.234375 -30.03125 C 3.484375 -31.914062 2.5625 -33.796875 1.46875 -35.671875 L 1.5625 -36.15625 L 6.53125 -36.15625 C 7.863281 -34.488281 9.046875 -32.722656 10.078125 -30.859375 C 11.109375 -28.992188 11.953125 -26.785156 12.609375 -24.234375 C 13.273438 -21.691406 13.609375 -18.820312 13.609375 -15.625 C 13.609375 -11.019531 12.957031 -7.101562 11.65625 -3.875 C 10.351562 -0.65625 8.644531 2.265625 6.53125 4.890625 L 1.5625 4.890625 Z M 1.46875 4.390625 "/></g></g></g></svg>